%TF.GenerationSoftware,KiCad,Pcbnew,5.1.10*%
%TF.CreationDate,2021-11-17T23:41:25-05:00*%
%TF.ProjectId,RGB-Breakout,5247422d-4272-4656-916b-6f75742e6b69,rev?*%
%TF.SameCoordinates,Original*%
%TF.FileFunction,Soldermask,Top*%
%TF.FilePolarity,Negative*%
%FSLAX46Y46*%
G04 Gerber Fmt 4.6, Leading zero omitted, Abs format (unit mm)*
G04 Created by KiCad (PCBNEW 5.1.10) date 2021-11-17 23:41:25*
%MOMM*%
%LPD*%
G01*
G04 APERTURE LIST*
%ADD10C,1.700000*%
%ADD11R,1.700000X1.700000*%
%ADD12O,1.700000X1.700000*%
G04 APERTURE END LIST*
%TO.C,J1*%
G36*
G01*
X129960000Y-90770000D02*
X129960000Y-89570000D01*
G75*
G02*
X130210000Y-89320000I250000J0D01*
G01*
X131410000Y-89320000D01*
G75*
G02*
X131660000Y-89570000I0J-250000D01*
G01*
X131660000Y-90770000D01*
G75*
G02*
X131410000Y-91020000I-250000J0D01*
G01*
X130210000Y-91020000D01*
G75*
G02*
X129960000Y-90770000I0J250000D01*
G01*
G37*
D10*
X130810000Y-92710000D03*
X130810000Y-95250000D03*
X130810000Y-97790000D03*
X130810000Y-100330000D03*
X130810000Y-102870000D03*
X130810000Y-105410000D03*
X130810000Y-107950000D03*
X133350000Y-90170000D03*
X133350000Y-92710000D03*
X133350000Y-95250000D03*
X133350000Y-97790000D03*
X133350000Y-100330000D03*
X133350000Y-102870000D03*
X133350000Y-105410000D03*
X133350000Y-107950000D03*
%TD*%
D11*
%TO.C,J2*%
X121920000Y-90170000D03*
D12*
X121920000Y-92710000D03*
X121920000Y-95250000D03*
X121920000Y-97790000D03*
X121920000Y-100330000D03*
X121920000Y-102870000D03*
X121920000Y-105410000D03*
X121920000Y-107950000D03*
%TD*%
D10*
%TO.C,J3*%
X142240000Y-90170000D03*
D12*
X142240000Y-92710000D03*
X142240000Y-95250000D03*
X142240000Y-97790000D03*
X142240000Y-100330000D03*
X142240000Y-102870000D03*
X142240000Y-105410000D03*
X142240000Y-107950000D03*
%TD*%
M02*
