%TF.GenerationSoftware,KiCad,Pcbnew,5.1.10*%
%TF.CreationDate,2021-11-17T23:41:25-05:00*%
%TF.ProjectId,RGB-Breakout,5247422d-4272-4656-916b-6f75742e6b69,rev?*%
%TF.SameCoordinates,Original*%
%TF.FileFunction,Legend,Bot*%
%TF.FilePolarity,Positive*%
%FSLAX46Y46*%
G04 Gerber Fmt 4.6, Leading zero omitted, Abs format (unit mm)*
G04 Created by KiCad (PCBNEW 5.1.10) date 2021-11-17 23:41:25*
%MOMM*%
%LPD*%
G01*
G04 APERTURE LIST*
%ADD10C,0.150000*%
G04 APERTURE END LIST*
D10*
X136437142Y-85987380D02*
X136770476Y-85511190D01*
X137008571Y-85987380D02*
X137008571Y-84987380D01*
X136627619Y-84987380D01*
X136532380Y-85035000D01*
X136484761Y-85082619D01*
X136437142Y-85177857D01*
X136437142Y-85320714D01*
X136484761Y-85415952D01*
X136532380Y-85463571D01*
X136627619Y-85511190D01*
X137008571Y-85511190D01*
X135484761Y-85035000D02*
X135580000Y-84987380D01*
X135722857Y-84987380D01*
X135865714Y-85035000D01*
X135960952Y-85130238D01*
X136008571Y-85225476D01*
X136056190Y-85415952D01*
X136056190Y-85558809D01*
X136008571Y-85749285D01*
X135960952Y-85844523D01*
X135865714Y-85939761D01*
X135722857Y-85987380D01*
X135627619Y-85987380D01*
X135484761Y-85939761D01*
X135437142Y-85892142D01*
X135437142Y-85558809D01*
X135627619Y-85558809D01*
X134675238Y-85463571D02*
X134532380Y-85511190D01*
X134484761Y-85558809D01*
X134437142Y-85654047D01*
X134437142Y-85796904D01*
X134484761Y-85892142D01*
X134532380Y-85939761D01*
X134627619Y-85987380D01*
X135008571Y-85987380D01*
X135008571Y-84987380D01*
X134675238Y-84987380D01*
X134580000Y-85035000D01*
X134532380Y-85082619D01*
X134484761Y-85177857D01*
X134484761Y-85273095D01*
X134532380Y-85368333D01*
X134580000Y-85415952D01*
X134675238Y-85463571D01*
X135008571Y-85463571D01*
X132913333Y-85463571D02*
X132770476Y-85511190D01*
X132722857Y-85558809D01*
X132675238Y-85654047D01*
X132675238Y-85796904D01*
X132722857Y-85892142D01*
X132770476Y-85939761D01*
X132865714Y-85987380D01*
X133246666Y-85987380D01*
X133246666Y-84987380D01*
X132913333Y-84987380D01*
X132818095Y-85035000D01*
X132770476Y-85082619D01*
X132722857Y-85177857D01*
X132722857Y-85273095D01*
X132770476Y-85368333D01*
X132818095Y-85415952D01*
X132913333Y-85463571D01*
X133246666Y-85463571D01*
X132246666Y-85987380D02*
X132246666Y-85320714D01*
X132246666Y-85511190D02*
X132199047Y-85415952D01*
X132151428Y-85368333D01*
X132056190Y-85320714D01*
X131960952Y-85320714D01*
X131246666Y-85939761D02*
X131341904Y-85987380D01*
X131532380Y-85987380D01*
X131627619Y-85939761D01*
X131675238Y-85844523D01*
X131675238Y-85463571D01*
X131627619Y-85368333D01*
X131532380Y-85320714D01*
X131341904Y-85320714D01*
X131246666Y-85368333D01*
X131199047Y-85463571D01*
X131199047Y-85558809D01*
X131675238Y-85654047D01*
X130341904Y-85987380D02*
X130341904Y-85463571D01*
X130389523Y-85368333D01*
X130484761Y-85320714D01*
X130675238Y-85320714D01*
X130770476Y-85368333D01*
X130341904Y-85939761D02*
X130437142Y-85987380D01*
X130675238Y-85987380D01*
X130770476Y-85939761D01*
X130818095Y-85844523D01*
X130818095Y-85749285D01*
X130770476Y-85654047D01*
X130675238Y-85606428D01*
X130437142Y-85606428D01*
X130341904Y-85558809D01*
X129865714Y-85987380D02*
X129865714Y-84987380D01*
X129770476Y-85606428D02*
X129484761Y-85987380D01*
X129484761Y-85320714D02*
X129865714Y-85701666D01*
X128913333Y-85987380D02*
X129008571Y-85939761D01*
X129056190Y-85892142D01*
X129103809Y-85796904D01*
X129103809Y-85511190D01*
X129056190Y-85415952D01*
X129008571Y-85368333D01*
X128913333Y-85320714D01*
X128770476Y-85320714D01*
X128675238Y-85368333D01*
X128627619Y-85415952D01*
X128580000Y-85511190D01*
X128580000Y-85796904D01*
X128627619Y-85892142D01*
X128675238Y-85939761D01*
X128770476Y-85987380D01*
X128913333Y-85987380D01*
X127722857Y-85320714D02*
X127722857Y-85987380D01*
X128151428Y-85320714D02*
X128151428Y-85844523D01*
X128103809Y-85939761D01*
X128008571Y-85987380D01*
X127865714Y-85987380D01*
X127770476Y-85939761D01*
X127722857Y-85892142D01*
X127389523Y-85320714D02*
X127008571Y-85320714D01*
X127246666Y-84987380D02*
X127246666Y-85844523D01*
X127199047Y-85939761D01*
X127103809Y-85987380D01*
X127008571Y-85987380D01*
X135008571Y-87113571D02*
X134675238Y-87113571D01*
X134532380Y-87637380D02*
X135008571Y-87637380D01*
X135008571Y-86637380D01*
X134532380Y-86637380D01*
X133770476Y-87113571D02*
X134103809Y-87113571D01*
X134103809Y-87637380D02*
X134103809Y-86637380D01*
X133627619Y-86637380D01*
X132532380Y-86732619D02*
X132484761Y-86685000D01*
X132389523Y-86637380D01*
X132151428Y-86637380D01*
X132056190Y-86685000D01*
X132008571Y-86732619D01*
X131960952Y-86827857D01*
X131960952Y-86923095D01*
X132008571Y-87065952D01*
X132580000Y-87637380D01*
X131960952Y-87637380D01*
X131341904Y-86637380D02*
X131246666Y-86637380D01*
X131151428Y-86685000D01*
X131103809Y-86732619D01*
X131056190Y-86827857D01*
X131008571Y-87018333D01*
X131008571Y-87256428D01*
X131056190Y-87446904D01*
X131103809Y-87542142D01*
X131151428Y-87589761D01*
X131246666Y-87637380D01*
X131341904Y-87637380D01*
X131437142Y-87589761D01*
X131484761Y-87542142D01*
X131532380Y-87446904D01*
X131580000Y-87256428D01*
X131580000Y-87018333D01*
X131532380Y-86827857D01*
X131484761Y-86732619D01*
X131437142Y-86685000D01*
X131341904Y-86637380D01*
X130627619Y-86732619D02*
X130580000Y-86685000D01*
X130484761Y-86637380D01*
X130246666Y-86637380D01*
X130151428Y-86685000D01*
X130103809Y-86732619D01*
X130056190Y-86827857D01*
X130056190Y-86923095D01*
X130103809Y-87065952D01*
X130675238Y-87637380D01*
X130056190Y-87637380D01*
X129103809Y-87637380D02*
X129675238Y-87637380D01*
X129389523Y-87637380D02*
X129389523Y-86637380D01*
X129484761Y-86780238D01*
X129580000Y-86875476D01*
X129675238Y-86923095D01*
M02*
