%TF.GenerationSoftware,KiCad,Pcbnew,5.1.10*%
%TF.CreationDate,2021-11-17T23:41:25-05:00*%
%TF.ProjectId,RGB-Breakout,5247422d-4272-4656-916b-6f75742e6b69,rev?*%
%TF.SameCoordinates,Original*%
%TF.FileFunction,Legend,Top*%
%TF.FilePolarity,Positive*%
%FSLAX46Y46*%
G04 Gerber Fmt 4.6, Leading zero omitted, Abs format (unit mm)*
G04 Created by KiCad (PCBNEW 5.1.10) date 2021-11-17 23:41:25*
%MOMM*%
%LPD*%
G01*
G04 APERTURE LIST*
%ADD10C,0.150000*%
%ADD11C,0.120000*%
G04 APERTURE END LIST*
D10*
X139475595Y-103322380D02*
X139475595Y-102322380D01*
X139713690Y-102322380D01*
X139856547Y-102370000D01*
X139951785Y-102465238D01*
X139999404Y-102560476D01*
X140047023Y-102750952D01*
X140047023Y-102893809D01*
X139999404Y-103084285D01*
X139951785Y-103179523D01*
X139856547Y-103274761D01*
X139713690Y-103322380D01*
X139475595Y-103322380D01*
X139808928Y-100258571D02*
X139951785Y-100306190D01*
X139999404Y-100353809D01*
X140047023Y-100449047D01*
X140047023Y-100591904D01*
X139999404Y-100687142D01*
X139951785Y-100734761D01*
X139856547Y-100782380D01*
X139475595Y-100782380D01*
X139475595Y-99782380D01*
X139808928Y-99782380D01*
X139904166Y-99830000D01*
X139951785Y-99877619D01*
X139999404Y-99972857D01*
X139999404Y-100068095D01*
X139951785Y-100163333D01*
X139904166Y-100210952D01*
X139808928Y-100258571D01*
X139475595Y-100258571D01*
X138523214Y-105862380D02*
X138047023Y-105862380D01*
X138047023Y-104862380D01*
X138808928Y-105576666D02*
X139285119Y-105576666D01*
X138713690Y-105862380D02*
X139047023Y-104862380D01*
X139380357Y-105862380D01*
X139570833Y-104862380D02*
X140142261Y-104862380D01*
X139856547Y-105862380D02*
X139856547Y-104862380D01*
X137951785Y-107450000D02*
X137856547Y-107402380D01*
X137713690Y-107402380D01*
X137570833Y-107450000D01*
X137475595Y-107545238D01*
X137427976Y-107640476D01*
X137380357Y-107830952D01*
X137380357Y-107973809D01*
X137427976Y-108164285D01*
X137475595Y-108259523D01*
X137570833Y-108354761D01*
X137713690Y-108402380D01*
X137808928Y-108402380D01*
X137951785Y-108354761D01*
X137999404Y-108307142D01*
X137999404Y-107973809D01*
X137808928Y-107973809D01*
X138427976Y-108402380D02*
X138427976Y-107402380D01*
X138999404Y-108402380D01*
X138999404Y-107402380D01*
X139475595Y-108402380D02*
X139475595Y-107402380D01*
X139713690Y-107402380D01*
X139856547Y-107450000D01*
X139951785Y-107545238D01*
X139999404Y-107640476D01*
X140047023Y-107830952D01*
X140047023Y-107973809D01*
X139999404Y-108164285D01*
X139951785Y-108259523D01*
X139856547Y-108354761D01*
X139713690Y-108402380D01*
X139475595Y-108402380D01*
X137951785Y-97290000D02*
X137856547Y-97242380D01*
X137713690Y-97242380D01*
X137570833Y-97290000D01*
X137475595Y-97385238D01*
X137427976Y-97480476D01*
X137380357Y-97670952D01*
X137380357Y-97813809D01*
X137427976Y-98004285D01*
X137475595Y-98099523D01*
X137570833Y-98194761D01*
X137713690Y-98242380D01*
X137808928Y-98242380D01*
X137951785Y-98194761D01*
X137999404Y-98147142D01*
X137999404Y-97813809D01*
X137808928Y-97813809D01*
X138427976Y-98242380D02*
X138427976Y-97242380D01*
X138999404Y-98242380D01*
X138999404Y-97242380D01*
X139475595Y-98242380D02*
X139475595Y-97242380D01*
X139713690Y-97242380D01*
X139856547Y-97290000D01*
X139951785Y-97385238D01*
X139999404Y-97480476D01*
X140047023Y-97670952D01*
X140047023Y-97813809D01*
X139999404Y-98004285D01*
X139951785Y-98099523D01*
X139856547Y-98194761D01*
X139713690Y-98242380D01*
X139475595Y-98242380D01*
X139047023Y-94750000D02*
X138951785Y-94702380D01*
X138808928Y-94702380D01*
X138666071Y-94750000D01*
X138570833Y-94845238D01*
X138523214Y-94940476D01*
X138475595Y-95130952D01*
X138475595Y-95273809D01*
X138523214Y-95464285D01*
X138570833Y-95559523D01*
X138666071Y-95654761D01*
X138808928Y-95702380D01*
X138904166Y-95702380D01*
X139047023Y-95654761D01*
X139094642Y-95607142D01*
X139094642Y-95273809D01*
X138904166Y-95273809D01*
X139475595Y-94797619D02*
X139523214Y-94750000D01*
X139618452Y-94702380D01*
X139856547Y-94702380D01*
X139951785Y-94750000D01*
X139999404Y-94797619D01*
X140047023Y-94892857D01*
X140047023Y-94988095D01*
X139999404Y-95130952D01*
X139427976Y-95702380D01*
X140047023Y-95702380D01*
X137951785Y-92210000D02*
X137856547Y-92162380D01*
X137713690Y-92162380D01*
X137570833Y-92210000D01*
X137475595Y-92305238D01*
X137427976Y-92400476D01*
X137380357Y-92590952D01*
X137380357Y-92733809D01*
X137427976Y-92924285D01*
X137475595Y-93019523D01*
X137570833Y-93114761D01*
X137713690Y-93162380D01*
X137808928Y-93162380D01*
X137951785Y-93114761D01*
X137999404Y-93067142D01*
X137999404Y-92733809D01*
X137808928Y-92733809D01*
X138427976Y-93162380D02*
X138427976Y-92162380D01*
X138999404Y-93162380D01*
X138999404Y-92162380D01*
X139475595Y-93162380D02*
X139475595Y-92162380D01*
X139713690Y-92162380D01*
X139856547Y-92210000D01*
X139951785Y-92305238D01*
X139999404Y-92400476D01*
X140047023Y-92590952D01*
X140047023Y-92733809D01*
X139999404Y-92924285D01*
X139951785Y-93019523D01*
X139856547Y-93114761D01*
X139713690Y-93162380D01*
X139475595Y-93162380D01*
X139047023Y-89670000D02*
X138951785Y-89622380D01*
X138808928Y-89622380D01*
X138666071Y-89670000D01*
X138570833Y-89765238D01*
X138523214Y-89860476D01*
X138475595Y-90050952D01*
X138475595Y-90193809D01*
X138523214Y-90384285D01*
X138570833Y-90479523D01*
X138666071Y-90574761D01*
X138808928Y-90622380D01*
X138904166Y-90622380D01*
X139047023Y-90574761D01*
X139094642Y-90527142D01*
X139094642Y-90193809D01*
X138904166Y-90193809D01*
X140047023Y-90622380D02*
X139475595Y-90622380D01*
X139761309Y-90622380D02*
X139761309Y-89622380D01*
X139666071Y-89765238D01*
X139570833Y-89860476D01*
X139475595Y-89908095D01*
X124351071Y-107402380D02*
X124541547Y-107402380D01*
X124636785Y-107450000D01*
X124732023Y-107545238D01*
X124779642Y-107735714D01*
X124779642Y-108069047D01*
X124732023Y-108259523D01*
X124636785Y-108354761D01*
X124541547Y-108402380D01*
X124351071Y-108402380D01*
X124255833Y-108354761D01*
X124160595Y-108259523D01*
X124112976Y-108069047D01*
X124112976Y-107735714D01*
X124160595Y-107545238D01*
X124255833Y-107450000D01*
X124351071Y-107402380D01*
X125208214Y-107878571D02*
X125541547Y-107878571D01*
X125684404Y-108402380D02*
X125208214Y-108402380D01*
X125208214Y-107402380D01*
X125684404Y-107402380D01*
X124732023Y-105767142D02*
X124684404Y-105814761D01*
X124541547Y-105862380D01*
X124446309Y-105862380D01*
X124303452Y-105814761D01*
X124208214Y-105719523D01*
X124160595Y-105624285D01*
X124112976Y-105433809D01*
X124112976Y-105290952D01*
X124160595Y-105100476D01*
X124208214Y-105005238D01*
X124303452Y-104910000D01*
X124446309Y-104862380D01*
X124541547Y-104862380D01*
X124684404Y-104910000D01*
X124732023Y-104957619D01*
X125636785Y-105862380D02*
X125160595Y-105862380D01*
X125160595Y-104862380D01*
X125970119Y-105862380D02*
X125970119Y-104862380D01*
X126541547Y-105862380D02*
X126112976Y-105290952D01*
X126541547Y-104862380D02*
X125970119Y-105433809D01*
X124732023Y-103227142D02*
X124684404Y-103274761D01*
X124541547Y-103322380D01*
X124446309Y-103322380D01*
X124303452Y-103274761D01*
X124208214Y-103179523D01*
X124160595Y-103084285D01*
X124112976Y-102893809D01*
X124112976Y-102750952D01*
X124160595Y-102560476D01*
X124208214Y-102465238D01*
X124303452Y-102370000D01*
X124446309Y-102322380D01*
X124541547Y-102322380D01*
X124684404Y-102370000D01*
X124732023Y-102417619D01*
X124112976Y-100496666D02*
X124589166Y-100496666D01*
X124017738Y-100782380D02*
X124351071Y-99782380D01*
X124684404Y-100782380D01*
X124493928Y-97718571D02*
X124636785Y-97766190D01*
X124684404Y-97813809D01*
X124732023Y-97909047D01*
X124732023Y-98051904D01*
X124684404Y-98147142D01*
X124636785Y-98194761D01*
X124541547Y-98242380D01*
X124160595Y-98242380D01*
X124160595Y-97242380D01*
X124493928Y-97242380D01*
X124589166Y-97290000D01*
X124636785Y-97337619D01*
X124684404Y-97432857D01*
X124684404Y-97528095D01*
X124636785Y-97623333D01*
X124589166Y-97670952D01*
X124493928Y-97718571D01*
X124160595Y-97718571D01*
X125112976Y-97337619D02*
X125160595Y-97290000D01*
X125255833Y-97242380D01*
X125493928Y-97242380D01*
X125589166Y-97290000D01*
X125636785Y-97337619D01*
X125684404Y-97432857D01*
X125684404Y-97528095D01*
X125636785Y-97670952D01*
X125065357Y-98242380D01*
X125684404Y-98242380D01*
X124732023Y-95702380D02*
X124398690Y-95226190D01*
X124160595Y-95702380D02*
X124160595Y-94702380D01*
X124541547Y-94702380D01*
X124636785Y-94750000D01*
X124684404Y-94797619D01*
X124732023Y-94892857D01*
X124732023Y-95035714D01*
X124684404Y-95130952D01*
X124636785Y-95178571D01*
X124541547Y-95226190D01*
X124160595Y-95226190D01*
X125112976Y-94797619D02*
X125160595Y-94750000D01*
X125255833Y-94702380D01*
X125493928Y-94702380D01*
X125589166Y-94750000D01*
X125636785Y-94797619D01*
X125684404Y-94892857D01*
X125684404Y-94988095D01*
X125636785Y-95130952D01*
X125065357Y-95702380D01*
X125684404Y-95702380D01*
X124493928Y-92638571D02*
X124636785Y-92686190D01*
X124684404Y-92733809D01*
X124732023Y-92829047D01*
X124732023Y-92971904D01*
X124684404Y-93067142D01*
X124636785Y-93114761D01*
X124541547Y-93162380D01*
X124160595Y-93162380D01*
X124160595Y-92162380D01*
X124493928Y-92162380D01*
X124589166Y-92210000D01*
X124636785Y-92257619D01*
X124684404Y-92352857D01*
X124684404Y-92448095D01*
X124636785Y-92543333D01*
X124589166Y-92590952D01*
X124493928Y-92638571D01*
X124160595Y-92638571D01*
X125684404Y-93162380D02*
X125112976Y-93162380D01*
X125398690Y-93162380D02*
X125398690Y-92162380D01*
X125303452Y-92305238D01*
X125208214Y-92400476D01*
X125112976Y-92448095D01*
X124732023Y-90622380D02*
X124398690Y-90146190D01*
X124160595Y-90622380D02*
X124160595Y-89622380D01*
X124541547Y-89622380D01*
X124636785Y-89670000D01*
X124684404Y-89717619D01*
X124732023Y-89812857D01*
X124732023Y-89955714D01*
X124684404Y-90050952D01*
X124636785Y-90098571D01*
X124541547Y-90146190D01*
X124160595Y-90146190D01*
X125684404Y-90622380D02*
X125112976Y-90622380D01*
X125398690Y-90622380D02*
X125398690Y-89622380D01*
X125303452Y-89765238D01*
X125208214Y-89860476D01*
X125112976Y-89908095D01*
D11*
%TO.C,J1*%
X126130000Y-90670000D02*
X127130000Y-90170000D01*
X126130000Y-89670000D02*
X126130000Y-90670000D01*
X127130000Y-90170000D02*
X126130000Y-89670000D01*
X128830000Y-101110000D02*
X127520000Y-101110000D01*
X128830000Y-101110000D02*
X128830000Y-101110000D01*
X128830000Y-111860000D02*
X128830000Y-101110000D01*
X135330000Y-111860000D02*
X128830000Y-111860000D01*
X135330000Y-86260000D02*
X135330000Y-111860000D01*
X128830000Y-86260000D02*
X135330000Y-86260000D01*
X128830000Y-97010000D02*
X128830000Y-86260000D01*
X127520000Y-97010000D02*
X128830000Y-97010000D01*
X127520000Y-113160000D02*
X127520000Y-84960000D01*
X136640000Y-113160000D02*
X127520000Y-113160000D01*
X136640000Y-84960000D02*
X136640000Y-113160000D01*
X127520000Y-84960000D02*
X136640000Y-84960000D01*
%TO.C,J2*%
X121920000Y-88840000D02*
X123250000Y-88840000D01*
X123250000Y-88840000D02*
X123250000Y-90170000D01*
X123250000Y-91440000D02*
X123250000Y-109280000D01*
X120590000Y-109280000D02*
X123250000Y-109280000D01*
X120590000Y-91440000D02*
X120590000Y-109280000D01*
X120590000Y-91440000D02*
X123250000Y-91440000D01*
%TO.C,J3*%
X142240000Y-88840000D02*
X143570000Y-88840000D01*
X143570000Y-88840000D02*
X143570000Y-90170000D01*
X143570000Y-91440000D02*
X143570000Y-109280000D01*
X140910000Y-109280000D02*
X143570000Y-109280000D01*
X140910000Y-91440000D02*
X140910000Y-109280000D01*
X140910000Y-91440000D02*
X143570000Y-91440000D01*
%TO.C,J1*%
D10*
X131746666Y-83522380D02*
X131746666Y-84236666D01*
X131699047Y-84379523D01*
X131603809Y-84474761D01*
X131460952Y-84522380D01*
X131365714Y-84522380D01*
X132746666Y-84522380D02*
X132175238Y-84522380D01*
X132460952Y-84522380D02*
X132460952Y-83522380D01*
X132365714Y-83665238D01*
X132270476Y-83760476D01*
X132175238Y-83808095D01*
%TO.C,J2*%
X121586666Y-86852380D02*
X121586666Y-87566666D01*
X121539047Y-87709523D01*
X121443809Y-87804761D01*
X121300952Y-87852380D01*
X121205714Y-87852380D01*
X122015238Y-86947619D02*
X122062857Y-86900000D01*
X122158095Y-86852380D01*
X122396190Y-86852380D01*
X122491428Y-86900000D01*
X122539047Y-86947619D01*
X122586666Y-87042857D01*
X122586666Y-87138095D01*
X122539047Y-87280952D01*
X121967619Y-87852380D01*
X122586666Y-87852380D01*
%TO.C,J3*%
X141906666Y-86852380D02*
X141906666Y-87566666D01*
X141859047Y-87709523D01*
X141763809Y-87804761D01*
X141620952Y-87852380D01*
X141525714Y-87852380D01*
X142287619Y-86852380D02*
X142906666Y-86852380D01*
X142573333Y-87233333D01*
X142716190Y-87233333D01*
X142811428Y-87280952D01*
X142859047Y-87328571D01*
X142906666Y-87423809D01*
X142906666Y-87661904D01*
X142859047Y-87757142D01*
X142811428Y-87804761D01*
X142716190Y-87852380D01*
X142430476Y-87852380D01*
X142335238Y-87804761D01*
X142287619Y-87757142D01*
%TD*%
M02*
